# xmcd
#
# Track frame offsets:
#	150
#	16453
#	32718
#	49920
#	67550
#	83414
#	103940
#	121948
#	137640
#	151886
#	170594
#	187095
#	202620
#	219825
#	236283
#	253970
#	269179
#	286117
#	301738
#	315802
#	336611
#	350817
#
# Disc length: 4874 seconds
# Revision: 0
# Processed by: cddbd v1.5.2PL0 Copyright (c) Steve Scherf et al.
# Submitted via: dBpowerAMP V12.0
#
DISCID=35130816
DTITLE=Various Artist - Gnadenlos Sommer Folge6 CD1
DYEAR=2003
DGENRE=Discofox
TTITLE0=Oliver Frank - La Notte
TTITLE1=Oli P. - Flugzeuge im Bauch (Radio Mix)
TTITLE2=Rosanna Rocci - Lailola (Dt. Version)
TTITLE3=Tommy Fischer - Sag mir
TTITLE4=Jürgen Drews - Verbrannt und erfroren
TTITLE5=Timo - Heute Nacht (Remix 2002)
TTITLE6=Modern Talking - No Face no Name no Number
TTITLE7=Bernd Berger - Ich hab' die Schnauze voll von dir
TTITLE8=Jürgen Drews - Oh wie ist das schön
TTITLE9=Christian König - Böse Böse Mädchen
TTITLE10=Frank Lars - So'n Scheiss passiert mir nicht nochmal
TTITLE11=Jens Bogner - Na Na Na (Das geht doch nie zu Ende)
TTITLE12=Jennifer - Teil von mir
TTITLE13=Modern Talking - Fly to the Moon
TTITLE14=Simone - Viel zu oft
TTITLE15=Olaf Berger - Baila Baila
TTITLE16=Olaf Henning and Michael Holm - Maddalena 2001
TTITLE17=Peter Sebastian - Und das war erst der Anfang
TTITLE18=Playa Rouge - Bumerang
TTITLE19=Sandy Wagner - Uh la la
TTITLE20=Uwe Busse - Das geht vorbei
TTITLE21=G.G. Anderson - Herz auf Rot
EXTD=
EXTT0=
EXTT1=
EXTT2=
EXTT3=
EXTT4=
EXTT5=
EXTT6=
EXTT7=
EXTT8=
EXTT9=
EXTT10=
EXTT11=
EXTT12=
EXTT13=
EXTT14=
EXTT15=
EXTT16=
EXTT17=
EXTT18=
EXTT19=
EXTT20=
EXTT21=
PLAYORDER=
